<?xml version="1.0" encoding="utf-8"?>
<!-- Generator: Adobe Illustrator 27.2.0, SVG Export Plug-In . SVG Version: 6.00 Build 0)  -->
<svg version="1.1" id="Layer_1" xmlns="http://www.w3.org/2000/svg" xmlns:xlink="http://www.w3.org/1999/xlink" x="0px" y="0px"
	 viewBox="0 0 1080 345" style="enable-background:new 0 0 1080 345;" xml:space="preserve">
<style type="text/css">
	.st0{fill:#00CCCC;}
</style>
<path class="st0" d="M122.0216064,50.4708252l-90.5392456,90.5392456L0,172.4923706l31.4823608,31.4823608l90.5392456,90.5388794
	l31.4822998-31.4823608l-90.5391846-90.5388794l90.5391846-90.5391846L122.0216064,50.4708252z M957.9788208,50.4860229
	L926.49646,81.9683838l90.5388184,90.5392456L926.49646,263.0464478l31.4823608,31.4827271L1080,172.5076294L957.9788208,50.4860229
	z M816.5859985,124.2078247l-26.9802856,45.2776489L715.7530518,293.467041h53.8419189l46.9301758-78.7922363l27.0076904-45.3323975
	l69.9813843-117.4655151h-53.8418579L816.5859985,124.2078247z M281.5241089,248.0828857
	c-7.0213013,4.0264893-15.0134277,6.038269-23.9855347,6.038269c-13.3486328,0-24.3933716-4.4252319-33.1342163-13.2877808
	c-8.7468872-8.8534546-13.1142578-20.0716553-13.1142578-33.6485596c0-13.8051147,4.3673706-25.1359253,13.1142578-33.9954834
	c8.7408447-8.8564453,19.7855835-13.2877197,33.1342163-13.2877197c8.7408447,0,16.6203613,2.069519,23.6416016,6.2116699
	c7.0151978,4.1421509,12.249939,9.7817383,15.7012329,16.9125366l38.3110962-22.4333496
	c-7.1338501-13.5738525-17.6033936-24.3872681-31.4085083-32.4433594
	c-13.8051758-8.0499268-29.107666-12.0794678-45.9015503-12.0794678c-26.0032959,0-47.6879883,8.7468872-65.0570679,26.2285767
	c-17.3751221,17.4907837-26.0581055,39.1206665-26.0581055,64.8865967c0,25.7720947,8.6829834,47.4019775,26.0581055,64.883606
	c17.3690796,17.4877319,39.053772,26.2316284,65.0570679,26.2316284c16.7938843,0,32.0963745-4.0874023,45.9015503-12.2529907
	c13.8051147-8.1655884,24.5059814-19.0368652,32.0994263-32.6137695l-38.6550293-22.0894165
	C293.7770996,238.4777222,288.5393066,244.0594482,281.5241089,248.0828857z M522.3919678,142.4716797
	c-16.4529419-17.6003418-36.2993774-26.4020386-59.5362549-26.4020386c-24.1589966,0-42.7941284,8.4030151-55.911438,25.1937866
	V51.8768921h-44.5197754V293.467041h44.5197754v-20.3638306c13.1173096,16.7999268,31.7524414,25.1968384,55.911438,25.1968384
	c23.2368774,0,43.083313-8.8016968,59.5362549-26.4050903c16.4468994-17.6003418,24.6763916-39.1724243,24.6763916-64.710144
	C547.0683594,181.644104,538.8388672,160.0750732,522.3919678,142.4716797z M488.9138794,242.2150879
	c-9.0908203,9.0908203-20.5342407,13.6317139-34.3394165,13.6317139c-13.8051147,0-25.1968384-4.5408936-34.1689453-13.6317139
	c-8.972168-9.0877686-13.4612427-20.7625122-13.4612427-35.0302734c0-14.2647095,4.4890747-25.9393921,13.4612427-35.0302124
	c8.9721069-9.0878296,20.3638306-13.6347656,34.1689453-13.6347656c13.8051758,0,25.2485962,4.546936,34.3394165,13.6347656
	c9.0877686,9.0908203,13.6316528,20.7655029,13.6316528,35.0302124
	C502.5455322,221.4525757,498.0016479,233.1273193,488.9138794,242.2150879z M573.6251831,285.3500977
	c0,5.9834595-1.4943237,10.3538818-4.4860229,13.1143188c-2.9887085,2.760376-7.3621826,4.312561-13.1143188,4.6594849
	c-5.7490845,0.3439331-12.8829346,0.2891846-21.3985596-0.1734619v40.3806763
	c30.6019897,3.4512939,52.1740723,0.5722046,64.710083-8.6282349c12.545166-9.2003784,18.8116455-25.6533203,18.8116455-49.3527832
	V135.9069214v-13.4581909l-44.5228271,13.4581909V285.3500977z M596.0585938,45.3182373
	c-7.5903931,0-14.0942993,2.760437-19.4995117,8.2843018c-5.4082031,5.520874-8.1107788,11.9638672-8.1107788,19.3259888
	c0,7.3651733,2.7025757,13.7503662,8.1107788,19.1555786c5.4052124,5.4082031,11.9091187,8.1108398,19.4995117,8.1108398
	c7.3621216,0,13.7473145-2.7026367,19.1555176-8.1108398c5.4052124-5.4052124,8.1108398-11.7904053,8.1108398-19.1555786
	c0-7.3621216-2.7056274-13.8051147-8.1108398-19.3259888C609.8059082,48.0786743,603.4207153,45.3182373,596.0585938,45.3182373z"/>
</svg>
