<?xml version="1.0" encoding="utf-8"?>
<!-- Generator: Adobe Illustrator 27.2.0, SVG Export Plug-In . SVG Version: 6.00 Build 0)  -->
<svg version="1.1" id="Layer_1" xmlns="http://www.w3.org/2000/svg" xmlns:xlink="http://www.w3.org/1999/xlink" x="0px" y="0px"
	 viewBox="0 0 2363.6767578 273.8994141" style="enable-background:new 0 0 2363.6767578 273.8994141;" xml:space="preserve">
<style type="text/css">
	.st0{fill:#121212;}
	.st1{fill:#00C8C8;}
</style>
<g>
	<path class="st1" d="M84.8999023,60c20.597168,0,38.1987305,7.6494141,52.7993164,22.9492188
		C152.296875,98.25,159.5996094,116.9013672,159.5996094,138.8994141c0,22.2001953-7.3027344,40.9033203-21.9003906,56.1005859
		c-14.6005859,15.2011719-32.2021484,22.7998047-52.7993164,22.7998047c-22.7998047,0-40.3027344-8.4003906-52.5-25.2001953
		v81.2998047H0v-210h32.3999023V85.5C44.597168,68.5029297,62.1000977,60,84.8999023,60z M45.8999023,173.25
		c9,9.1025391,20.296875,13.6494141,33.9003906,13.6494141c13.5981445,0,24.8999023-4.546875,33.8999023-13.6494141
		c9-9.0986328,13.5-20.5507812,13.5-34.3505859s-4.5-25.2470703-13.5-34.3496094
		c-9-9.0986328-20.3017578-13.6503906-33.8999023-13.6503906c-13.6035156,0-24.9003906,4.5517578-33.9003906,13.6503906
		c-9,9.1025391-13.5,20.5498047-13.5,34.3496094S36.8999023,164.1513672,45.8999023,173.25z"/>
	<path class="st1" d="M290.0966797,63.8994141h32.4003906v150h-32.4003906v-19.2001953
		c-9.8017578,15.4033203-25.3027344,23.1005859-46.5,23.1005859c-17.203125,0-31.1015625-5.4990234-41.7001953-16.5
		C191.2939453,190.3027344,185.9970703,175.1992188,185.9970703,156V63.8994141h32.3994141v88.7998047
		c0,11.203125,3,19.8007812,9,25.8007812s14.1982422,9,24.6005859,9c11.3994141,0,20.5966797-3.5488281,27.5996094-10.6503906
		c6.9980469-7.0966797,10.5-17.9482422,10.5-32.5498047V63.8994141z"/>
	<path class="st1" d="M392.6962891,89.0996094C400.8945312,70.5,416.2929688,61.1992188,438.8964844,61.1992188v35.1005859
		c-12.4033203-0.796875-23.203125,2.1513672-32.4003906,8.8496094c-9.2011719,6.703125-13.7998047,17.7519531-13.7998047,33.1503906
		v75.5996094H360.296875v-150h32.3994141V89.0996094z"/>
	<path class="st1" d="M481.4970703,152.6992188c2.3994141,11.4003906,7.8984375,20.1523438,16.5,26.25
		c8.5966797,6.1035156,19.0966797,9.1503906,31.5,9.1503906c17.1982422,0,30.0976562-6.1972656,38.6992188-18.5996094
		l26.7001953,15.5996094c-14.8027344,21.8017578-36.703125,32.7001953-65.7001953,32.7001953
		c-24.4023438,0-44.0996094-7.4482422-59.0996094-22.3505859c-15-14.8964844-22.5-33.75-22.5-56.5498047
		c0-22.3964844,7.3964844-41.1464844,22.2001953-56.25C484.5947266,67.5507812,503.59375,60,526.796875,60
		c21.9980469,0,40.0498047,7.7011719,54.1494141,23.0996094c14.1005859,15.4033203,21.1503906,34.1015625,21.1503906,56.0996094
		c0,3.4033203-0.4033203,7.9033203-1.2001953,13.5H481.4970703z M481.1962891,126.2998047h88.2001953
		c-2.203125-12.1972656-7.2509766-21.3984375-15.1494141-27.6005859c-7.9033203-6.1962891-17.1523438-9.2998047-27.75-9.2998047
		c-12,0-22.0039062,3.2998047-30,9.9003906C488.4951172,105.8994141,483.3955078,114.8994141,481.1962891,126.2998047z"/>
	<path class="st1" d="M824.3925781,63.8994141h32.3994141v150h-32.3994141v-21.5996094
		c-12.2021484,17.0009766-29.7001953,25.5-52.5,25.5c-20.6015625,0-38.203125-7.6503906-52.7998047-22.9501953
		c-14.6015625-15.2998047-21.9003906-33.9472656-21.9003906-55.9501953c0-22.2001953,7.2988281-40.8984375,21.9003906-56.0996094
		C733.6894531,67.6025391,751.2910156,60,771.8925781,60c22.7998047,0,40.2978516,8.3994141,52.5,25.1992188V63.8994141z
		 M743.0927734,173.25c9,9.1025391,20.296875,13.6494141,33.8994141,13.6494141
		c13.5986328,0,24.9003906-4.546875,33.9003906-13.6494141c9-9.0986328,13.5-20.5507812,13.5-34.3505859
		s-4.5-25.2470703-13.5-34.3496094c-9-9.0986328-20.3017578-13.6503906-33.9003906-13.6503906
		c-13.6025391,0-24.8994141,4.5517578-33.8994141,13.6503906c-9,9.1025391-13.5,20.5498047-13.5,34.3496094
		S734.0927734,164.1513672,743.0927734,173.25z"/>
	<path class="st1" d="M922.7919922,105.0976562c0,4.9414062,2.7705078,8.8408203,8.3105469,11.7001953
		c5.5410156,2.8642578,12.1923828,5.4892578,19.9501953,7.8798828s15.7080078,4.8417969,23.8505859,7.3496094
		c8.1416016,2.5078125,14.9433594,7.1484375,20.3994141,13.9267578s8.1894531,15.328125,8.1894531,25.6455078
		c0,14.4003906-5.5498047,25.7011719-16.6503906,33.9003906c-11.0996094,8.203125-25.0498047,12.2998047-41.8496094,12.2998047
		c-14.8037109,0-27.5019531-3.1035156-38.1005859-9.2998047c-10.6025391-6.1972656-18.2998047-14.7988281-23.0996094-25.8007812
		L911.6923828,166.5c5.1982422,14.3994141,16.2978516,21.5996094,33.2998047,21.5996094
		c16.9970703,0,25.5-5.6015625,25.5-16.8046875c0-4.7998047-2.7519531-8.7001953-8.25-11.7001953
		c-5.5029297-3-12.1318359-5.6953125-19.8896484-8.0859375s-15.7070312-4.8417969-23.8496094-7.3496094
		c-8.1425781-2.5029297-14.9628906-7.0078125-20.4609375-13.5097656c-5.5029297-6.4970703-8.25-14.7470703-8.25-24.75
		c0-13.7998047,5.25-24.8994141,15.75-33.2998047S929.0917969,60,944.6923828,60c12.3984375,0,23.4462891,2.7509766,33.1494141,8.25
		c9.6982422,5.5029297,17.1474609,13.1523438,22.3505859,22.9492188L972.8916016,106.5
		c-5.203125-11.4003906-14.6015625-17.1005859-28.1992188-17.1005859c-6.2021484,0-11.4003906,1.3359375-15.6005859,3.9990234
		C924.8916016,96.0654297,922.7919922,99.9648438,922.7919922,105.0976562z"/>
	<path class="st1" d="M1116.8916016,60c20.5966797,0,38.1982422,7.6494141,52.7998047,22.9492188
		c14.5976562,15.3007812,21.9003906,33.9521484,21.9003906,55.9501953c0,22.2001953-7.3027344,40.9033203-21.9003906,56.1005859
		c-14.6015625,15.2011719-32.203125,22.7998047-52.7998047,22.7998047c-22.7998047,0-40.3027344-8.4003906-52.5-25.2001953
		v81.2998047h-32.3994141v-210h32.3994141V85.5C1076.5888672,68.5029297,1094.0917969,60,1116.8916016,60z M1077.8916016,173.25
		c9,9.1025391,20.296875,13.6494141,33.9003906,13.6494141c13.5986328,0,24.8994141-4.546875,33.8994141-13.6494141
		c9-9.0986328,13.5-20.5507812,13.5-34.3505859s-4.5-25.2470703-13.5-34.3496094
		c-9-9.0986328-20.3007812-13.6503906-33.8994141-13.6503906c-13.6035156,0-24.9003906,4.5517578-33.9003906,13.6503906
		c-9,9.1025391-13.5,20.5498047-13.5,34.3496094S1068.8916016,164.1513672,1077.8916016,173.25z"/>
	<path class="st1" d="M1246.4892578,152.6992188c2.3994141,11.4003906,7.8984375,20.1523438,16.5,26.25
		c8.5966797,6.1035156,19.0966797,9.1503906,31.5,9.1503906c17.1982422,0,30.0976562-6.1972656,38.6992188-18.5996094
		l26.7001953,15.5996094c-14.8027344,21.8017578-36.703125,32.7001953-65.7001953,32.7001953
		c-24.4023438,0-44.0996094-7.4482422-59.0996094-22.3505859c-15-14.8964844-22.5-33.75-22.5-56.5498047
		c0-22.3964844,7.3964844-41.1464844,22.2001953-56.25C1249.5869141,67.5507812,1268.5859375,60,1291.7890625,60
		c21.9980469,0,40.0498047,7.7011719,54.1494141,23.0996094c14.1005859,15.4033203,21.1503906,34.1015625,21.1503906,56.0996094
		c0,3.4033203-0.4033203,7.9033203-1.2001953,13.5H1246.4892578z M1246.1884766,126.2998047h88.2001953
		c-2.203125-12.1972656-7.2509766-21.3984375-15.1494141-27.6005859c-7.9033203-6.1962891-17.1523438-9.2998047-27.75-9.2998047
		c-12,0-22.0039062,3.2998047-30,9.9003906C1253.4873047,105.8994141,1248.3876953,114.8994141,1246.1884766,126.2998047z"/>
	<path class="st1" d="M1465.4873047,217.7998047c-22.6035156,0-41.4521484-7.5986328-56.5498047-22.7998047
		c-15.1035156-15.1972656-22.6503906-33.9003906-22.6503906-56.1005859c0-22.3964844,7.546875-41.1464844,22.6503906-56.25
		C1424.0351562,67.5507812,1442.8837891,60,1465.4873047,60c14.5966797,0,27.8994141,3.5009766,39.8994141,10.5
		c12,7.0029297,21,16.4013672,27,28.1992188l-27.8994141,16.2001953
		c-3.4033203-7.2001953-8.5498047-12.8486328-15.4501953-16.9501953
		c-6.9003906-4.0966797-14.8496094-6.1494141-23.8496094-6.1494141c-13.2001953,0-24.2539062,4.5-33.1503906,13.5
		c-8.9013672,9-13.3496094,20.203125-13.3496094,33.5996094c0,13.4013672,4.4482422,24.6005859,13.3496094,33.6005859
		c8.8964844,9,19.9501953,13.5,33.1503906,13.5c8.7978516,0,16.7480469-2.1005859,23.8496094-6.3007812
		c7.0966797-4.1992188,12.4501953-9.796875,16.0498047-16.7998047l27.9003906,15.9003906
		c-6.4033203,12-15.6005859,21.5009766-27.6005859,28.5
		C1493.3867188,214.2978516,1480.0839844,217.7998047,1465.4873047,217.7998047z"/>
	<path class="st1" d="M1640.0869141,95.0996094h-37.1992188v72c0,6.2011719,1.3964844,10.6503906,4.1992188,13.3496094
		c2.7988281,2.7001953,6.9472656,4.2001953,12.4501953,4.5c5.4990234,0.3007812,12.3466797,0.2539062,20.5498047-0.1494141
		v29.0996094c-24.8007812,3-42.5996094,0.8486328-53.3994141-6.4501953
		c-10.7998047-7.2978516-16.2001953-20.7460938-16.2001953-40.3496094v-72h-27.5996094V63.8994141h27.5996094V31.5
		l32.4003906-9.6005859v42h37.1992188V95.0996094z"/>
	<path class="st1" d="M1778.3837891,89.0996094c8.1982422-18.5996094,23.5966797-27.9003906,46.2001953-27.9003906v35.1005859
		c-12.4033203-0.796875-23.203125,2.1513672-32.4003906,8.8496094c-9.2011719,6.703125-13.7998047,17.7519531-13.7998047,33.1503906
		v75.5996094h-32.3994141v-150h32.3994141V89.0996094z"/>
	<path class="st1" d="M1960.484375,63.8994141h32.3994141v150h-32.3994141v-21.5996094
		c-12.2021484,17.0009766-29.7001953,25.5-52.5,25.5c-20.6015625,0-38.203125-7.6503906-52.7998047-22.9501953
		c-14.6015625-15.2998047-21.9003906-33.9472656-21.9003906-55.9501953c0-22.2001953,7.2988281-40.8984375,21.9003906-56.0996094
		C1869.78125,67.6025391,1887.3828125,60,1907.984375,60c22.7998047,0,40.2978516,8.3994141,52.5,25.1992188V63.8994141z
		 M1879.1845703,173.25c9,9.1025391,20.296875,13.6494141,33.8994141,13.6494141
		c13.5986328,0,24.9003906-4.546875,33.9003906-13.6494141c9-9.0986328,13.5-20.5507812,13.5-34.3505859
		s-4.5-25.2470703-13.5-34.3496094c-9-9.0986328-20.3017578-13.6503906-33.9003906-13.6503906
		c-13.6025391,0-24.8994141,4.5517578-33.8994141,13.6503906c-9,9.1025391-13.5,20.5498047-13.5,34.3496094
		S1870.1845703,164.1513672,1879.1845703,173.25z"/>
	<path class="st1" d="M2114.3808594,95.0996094h-37.1992188v72c0,6.2011719,1.3964844,10.6503906,4.1992188,13.3496094
		c2.7988281,2.7001953,6.9472656,4.2001953,12.4501953,4.5c5.4990234,0.3007812,12.3466797,0.2539062,20.5498047-0.1494141
		v29.0996094c-24.8007812,3-42.5996094,0.8486328-53.3994141-6.4501953
		c-10.7998047-7.2978516-16.2001953-20.7460938-16.2001953-40.3496094v-72h-27.5996094V63.8994141h27.5996094V31.5
		l32.4003906-9.6005859v42h37.1992188V95.0996094z"/>
	<path class="st1" d="M2174.53125,35.25c-4.1015625,4.1015625-8.953125,6.1494141-14.5507812,6.1494141
		c-5.6015625,0-10.453125-2.0478516-14.5498047-6.1494141c-4.1015625-4.0976562-6.1494141-8.9492188-6.1494141-14.5507812
		c0-5.5966797,1.9960938-10.4482422,6-14.5498047C2149.2792969,2.0527344,2154.1777344,0,2159.9804688,0
		c5.7988281,0,10.6972656,2.0527344,14.7001953,6.1494141c3.9990234,4.1015625,6,8.953125,6,14.5498047
		C2180.6806641,26.3007812,2178.6279297,31.1523438,2174.53125,35.25z M2143.78125,213.8994141v-150h32.3994141v150H2143.78125z"/>
	<path class="st1" d="M2284.4765625,217.7998047c-22.0029297,0-40.7021484-7.5986328-56.1005859-22.7998047
		c-15.4023438-15.1972656-23.0996094-33.9003906-23.0996094-56.1005859s7.6972656-40.8984375,23.0996094-56.0996094
		C2243.7744141,67.6025391,2262.4736328,60,2284.4765625,60c22.2001953,0,40.9501953,7.6025391,56.25,22.7998047
		c15.2998047,15.2011719,22.9501953,33.8994141,22.9501953,56.0996094S2356.0263672,179.8027344,2340.7265625,195
		C2325.4267578,210.2011719,2306.6767578,217.7998047,2284.4765625,217.7998047z M2251.1767578,172.7998047
		c9,9,20.0996094,13.5,33.2998047,13.5s24.2998047-4.5,33.2998047-13.5s13.5-20.296875,13.5-33.9003906
		c0-13.5986328-4.5-24.8994141-13.5-33.8994141s-20.0996094-13.5-33.2998047-13.5s-24.2998047,4.5-33.2998047,13.5
		s-13.5,20.3007812-13.5,33.8994141C2237.6767578,152.5029297,2242.1767578,163.7998047,2251.1767578,172.7998047z"/>
</g>
</svg>
