<?xml version="1.0" encoding="utf-8"?>
<!-- Generator: Adobe Illustrator 27.2.0, SVG Export Plug-In . SVG Version: 6.00 Build 0)  -->
<svg version="1.1" id="Layer_1" xmlns="http://www.w3.org/2000/svg" xmlns:xlink="http://www.w3.org/1999/xlink" x="0px" y="0px"
	 viewBox="0 0 990.5878906 252" style="enable-background:new 0 0 990.5878906 252;" xml:space="preserve">
<style type="text/css">
	.st0{fill:#121212;}
	.st1{fill:#00C8C8;}
</style>
<g>
	<path class="st1" d="M79.2001953,195.8999023c-22.003418,0-40.7016602-7.5981445-56.1000977-22.7998047
		C7.6967773,157.9033203,0,139.2001953,0,117s7.6967773-40.8984375,23.1000977-56.1000977
		C38.4985352,45.703125,57.1967773,38.1000977,79.2001953,38.1000977c22.199707,0,40.949707,7.6030273,56.25,22.7998047
		C150.75,76.1015625,158.3999023,94.7998047,158.3999023,117s-7.6499023,40.9033203-22.949707,56.1000977
		C120.1499023,188.3017578,101.3999023,195.8999023,79.2001953,195.8999023z M45.8999023,150.8999023
		c9,9,20.1000977,13.5,33.300293,13.5c13.199707,0,24.2998047-4.5,33.2998047-13.5S126,130.6030273,126,117
		c0-13.5986328-4.5-24.8999023-13.5-33.8999023s-20.1000977-13.5-33.2998047-13.5c-13.2001953,0-24.300293,4.5-33.300293,13.5
		s-13.5,20.3012695-13.5,33.8999023C32.3999023,130.6030273,36.8999023,141.8999023,45.8999023,150.8999023z"/>
	<path class="st1" d="M288.8974609,42h32.3999023v150h-32.3999023v-19.2001953
		c-9.8017578,15.4033203-25.3032227,23.1000977-46.5,23.1000977c-17.203125,0-31.1015625-5.4985352-41.7001953-16.5
		c-10.6030273-10.996582-15.8999023-26.1000977-15.8999023-45.2998047V42h32.3999023v88.7998047
		c0,11.203125,3,19.800293,9,25.800293s14.1987305,9,24.6000977,9c11.3999023,0,20.597168-3.5483398,27.6000977-10.6499023
		c6.9985352-7.097168,10.5-17.9487305,10.5-32.550293V42z"/>
	<path class="st1" d="M442.7973633,73.2001953H405.597168v72c0,6.2011719,1.3969727,10.6499023,4.2001953,13.3496094
		c2.7983398,2.7001953,6.9467773,4.2001953,12.449707,4.5c5.4985352,0.300293,12.347168,0.253418,20.550293-0.1499023V192
		c-24.8017578,3-42.6000977,0.8486328-53.3999023-6.4501953c-10.800293-7.2983398-16.2001953-20.746582-16.2001953-40.3496094v-72
		H345.597168V42h27.6000977V9.6000977L405.597168,0v42h37.2001953V73.2001953z"/>
	<path class="st1" d="M558.59375,38.1000977c20.597168,0,38.1987305,7.6499023,52.800293,22.949707
		C625.9907227,76.3500977,633.2939453,95.0014648,633.2939453,117c0,22.2001953-7.3032227,40.9033203-21.8999023,56.1000977
		c-14.6015625,15.2016602-32.203125,22.7998047-52.800293,22.7998047c-22.7998047,0-40.3027344-8.3999023-52.5-25.199707V252
		h-32.3999023V42H506.09375v21.6000977C518.2910156,46.6030273,535.7939453,38.1000977,558.59375,38.1000977z
		 M519.59375,151.3500977C528.59375,160.453125,539.890625,165,553.4941406,165
		c13.5981445,0,24.8999023-4.546875,33.8999023-13.6499023c9-9.0986328,13.5-20.550293,13.5-34.3500977
		s-4.5-25.2470703-13.5-34.3500977C578.394043,73.5517578,567.0922852,69,553.4941406,69
		C539.890625,69,528.59375,73.5517578,519.59375,82.6499023c-9,9.1030273-13.5,20.550293-13.5,34.3500977
		S510.59375,142.2514648,519.59375,151.3500977z"/>
	<path class="st1" d="M763.7910156,42h32.4003906v150h-32.4003906v-19.2001953
		c-9.8027344,15.4033203-25.3032227,23.1000977-46.5004883,23.1000977c-17.203125,0-31.1015625-5.4985352-41.7001953-16.5
		c-10.6025391-10.996582-15.8994141-26.1000977-15.8994141-45.2998047V42h32.3994141v88.7998047
		c0,11.203125,3,19.800293,9,25.800293s14.1982422,9,24.6005859,9c11.3994141,0,20.5961914-3.5483398,27.6000977-10.6499023
		c6.9980469-7.097168,10.5-17.9487305,10.5-32.550293V42z"/>
	<path class="st1" d="M917.6894531,73.2001953h-37.1992188v72c0,6.2011719,1.3964844,10.6499023,4.1992188,13.3496094
		c2.7988281,2.7001953,6.9472656,4.2001953,12.4511719,4.5c5.4980469,0.300293,12.3457031,0.253418,20.5488281-0.1499023V192
		c-24.8007812,3-42.5996094,0.8486328-53.3984375-6.4501953c-10.8007812-7.2983398-16.2011719-20.746582-16.2011719-40.3496094v-72
		h-27.5996094V42h27.5996094V9.6000977L880.4902344,0v42h37.1992188V73.2001953z"/>
	<path class="st1" d="M983.9863281,76.5c-4.4003906,4.4013672-9.703125,6.6000977-15.8984375,6.6000977
		c-6.203125,0-11.5039062-2.1987305-15.9003906-6.6000977c-4.4023438-4.3969727-6.5996094-9.6982422-6.5996094-15.8999023
		c0-6.3984375,2.1464844-11.7470703,6.4492188-16.050293c4.2988281-4.2983398,9.6464844-6.449707,16.0507812-6.449707
		c6.1953125,0,11.4980469,2.203125,15.8984375,6.6000977c4.3984375,4.4013672,6.6015625,9.703125,6.6015625,15.8999023
		C990.5878906,66.8017578,988.3847656,72.1030273,983.9863281,76.5z M983.9863281,189
		c-4.4003906,4.3969727-9.703125,6.6000977-15.8984375,6.6000977c-6.203125,0-11.5039062-2.203125-15.9003906-6.6000977
		c-4.4023438-4.3969727-6.5996094-9.6982422-6.5996094-15.8999023c0-6.1967773,2.1464844-11.4985352,6.4492188-15.8999023
		c4.2988281-4.3969727,9.6464844-6.6000977,16.0507812-6.6000977c6.1953125,0,11.4980469,2.203125,15.8984375,6.6000977
		c4.3984375,4.4013672,6.6015625,9.703125,6.6015625,15.8999023C990.5878906,179.3017578,988.3847656,184.6030273,983.9863281,189z"
		/>
</g>
</svg>
