<?xml version="1.0" encoding="utf-8"?>
<!-- Generator: Adobe Illustrator 27.2.0, SVG Export Plug-In . SVG Version: 6.00 Build 0)  -->
<svg version="1.1" id="Layer_1" xmlns="http://www.w3.org/2000/svg" xmlns:xlink="http://www.w3.org/1999/xlink" x="0px" y="0px"
	 viewBox="0 0 1272.5839844 288" style="enable-background:new 0 0 1272.5839844 288;" xml:space="preserve">
<style type="text/css">
	.st0{fill:#FFFFFF;}
</style>
<path class="st0" d="M102.75,184.7998047c-7.1015625,4.2001953-15.0517578,6.300293-23.8500977,6.300293
	c-13.199707,0-24.2529297-4.5-33.1499023-13.5c-8.9013672-9-13.3500977-20.1987305-13.3500977-33.6000977
	c0-13.3969727,4.4487305-24.6000977,13.3500977-33.6000977c8.8969727-9,19.9501953-13.5,33.1499023-13.5
	c9,0,16.9501953,2.0532227,23.8500977,6.1499023c6.8999023,4.1015625,12.046875,9.75,15.4501953,16.9501953l27.8989258-16.2001953
	c-5.9990234-11.7983398-14.9990234-21.1967773-26.9990234-28.199707c-12-6.9985352-25.3032227-10.5-39.8999023-10.5
	c-22.6035156,0-41.4516602,7.5512695-56.550293,22.6499023C7.546875,102.8530273,0,121.6030273,0,144
	c0,22.2001953,7.546875,40.9033203,22.6499023,56.1000977c15.0986328,15.2016602,33.9467773,22.7998047,56.550293,22.7998047
	c14.5966797,0,27.8999023-3.5014648,39.8999023-10.5s21.1967773-16.5,27.6005859-28.5L118.7998047,168
	C115.2001953,175.0029297,109.8466797,180.6000977,102.75,184.7998047z M286.5024414,90.2998047
	c-12.2021484-16.7998047-29.7001953-25.199707-52.5-25.199707c-20.6015625,0-38.203125,7.6030273-52.7998047,22.7998047
	C166.6010742,103.1015625,159.3022461,121.7998047,159.3022461,144c0,22.0029297,7.2988281,40.6499023,21.9003906,55.9501953
	c14.5966797,15.2998047,32.1982422,22.949707,52.7998047,22.949707c22.7998047,0,40.2978516-8.4985352,52.5-25.5V219h32.3994141V69
	h-32.3994141V90.2998047z M273.0024414,178.3500977C264.0024414,187.453125,252.7006836,192,239.1020508,192
	c-13.6025391,0-24.8994141-4.546875-33.8994141-13.6499023c-9-9.0986328-13.5-20.550293-13.5-34.3500977
	s4.5-25.2470703,13.5-34.3500977C214.2026367,100.5517578,225.4995117,96,239.1020508,96
	c13.5986328,0,24.9003906,4.5517578,33.9003906,13.6499023c9,9.1030273,13.5,20.550293,13.5,34.3500977
	S282.0024414,169.2514648,273.0024414,178.3500977z M356.6987305,219h32.3994141V0h-32.3994141V219z M520.9448242,184.7998047
	c-7.1015625,4.2001953-15.0517578,6.300293-23.8496094,6.300293c-13.2001953,0-24.2539062-4.5-33.1503906-13.5
	c-8.9013672-9-13.3496094-20.1987305-13.3496094-33.6000977c0-13.3969727,4.4482422-24.6000977,13.3496094-33.6000977
	c8.8964844-9,19.9501953-13.5,33.1503906-13.5c9,0,16.9492188,2.0532227,23.8496094,6.1499023
	c6.9003906,4.1015625,12.046875,9.75,15.4501953,16.9501953l27.8994141-16.2001953c-6-11.7983398-15-21.1967773-27-28.199707
	c-12-6.9985352-25.3027344-10.5-39.8994141-10.5c-22.6035156,0-41.4521484,7.5512695-56.5498047,22.6499023
	c-15.1035156,15.1030273-22.6503906,33.8530273-22.6503906,56.25c0,22.2001953,7.546875,40.9033203,22.6503906,56.1000977
	c15.0976562,15.2016602,33.9462891,22.7998047,56.5498047,22.7998047c14.5966797,0,27.8994141-3.5014648,39.8994141-10.5
	s21.1972656-16.5,27.6005859-28.5L536.9946289,168C533.3950195,175.0029297,528.0415039,180.6000977,520.9448242,184.7998047z
	 M690.2929688,149.3999023c0,14.6015625-3.5019531,25.453125-10.5,32.550293
	c-7.0029297,7.1015625-16.2001953,10.6499023-27.6000977,10.6499023c-10.4023438,0-18.6005859-3-24.6005859-9
	s-9-14.597168-9-25.800293V69h-32.3994141v92.1000977c0,19.199707,5.296875,34.3032227,15.8994141,45.2998047
	c10.5986328,11.0014648,24.4970703,16.5,41.7001953,16.5c21.1977539,0,36.6987305-7.6967773,46.5004883-23.1000977V219h32.4003906
	V69h-32.4003906V149.3999023z M760.4931641,219h32.3994141V0h-32.3994141V219z M949.1884766,90.2998047
	c-12.2021484-16.7998047-29.7001953-25.199707-52.5-25.199707c-20.6015625,0-38.203125,7.6030273-52.7998047,22.7998047
	C829.2871094,103.1015625,821.9882812,121.7998047,821.9882812,144c0,22.0029297,7.2988281,40.6499023,21.9003906,55.9501953
	c14.5966797,15.2998047,32.1982422,22.949707,52.7998047,22.949707c22.7998047,0,40.2978516-8.4985352,52.5-25.5V219h32.3994141V69
	h-32.3994141V90.2998047z M935.6884766,178.3500977C926.6884766,187.453125,915.3867188,192,901.7880859,192
	c-13.6025391,0-24.8994141-4.546875-33.8994141-13.6499023c-9-9.0986328-13.5-20.550293-13.5-34.3500977
	s4.5-25.2470703,13.5-34.3500977C876.8886719,100.5517578,888.1855469,96,901.7880859,96
	c13.5986328,0,24.9003906,4.5517578,33.9003906,13.6499023c9,9.1030273,13.5,20.550293,13.5,34.3500977
	S944.6884766,169.2514648,935.6884766,178.3500977z M1065.8857422,27l-32.4003906,9.6000977V69h-27.5996094v31.2001953h27.5996094
	v72c0,19.6030273,5.4003906,33.0512695,16.2001953,40.3496094C1060.4853516,219.8486328,1078.2841797,222,1103.0849609,219
	v-29.1000977c-8.203125,0.4033203-15.0507812,0.4501953-20.5498047,0.1499023
	c-5.5029297-0.2998047-9.6513672-1.7998047-12.4501953-4.5c-2.8027344-2.699707-4.1992188-7.1484375-4.1992188-13.3496094v-72
	h37.1992188V69h-37.1992188V27z M1272.5839844,144.2998047c0-21.9980469-7.0498047-40.6967773-21.1503906-56.0996094
	c-14.0996094-15.3984375-32.1513672-23.1000977-54.1494141-23.1000977c-23.203125,0-42.2021484,7.5512695-57,22.6499023
	c-14.8037109,15.1030273-22.2001953,33.8530273-22.2001953,56.25c0,22.7998047,7.5,41.6533203,22.5,56.5498047
	c15,14.9018555,34.6972656,22.3500977,59.0996094,22.3500977c28.9970703,0,50.8974609-10.8984375,65.7001953-32.699707
	l-26.7001953-15.6000977c-8.6015625,12.402832-21.5009766,18.6000977-38.6992188,18.6000977
	c-12.4033203,0-22.9033203-3.046875-31.5-9.1503906c-8.6015625-6.0981445-14.1005859-14.8496094-16.5-26.25h119.3994141
	C1272.1806641,152.203125,1272.5839844,147.703125,1272.5839844,144.2998047z M1151.6835938,131.3999023
	c2.1992188-11.3999023,7.2988281-20.3999023,15.3007812-27c7.9960938-6.6000977,18-9.8999023,30-9.8999023
	c10.5976562,0,19.8466797,3.1030273,27.75,9.2998047c7.8984375,6.2016602,12.9462891,15.4033203,15.1494141,27.6000977H1151.6835938
	z"/>
</svg>
