<?xml version="1.0" encoding="utf-8"?>
<!-- Generator: Adobe Illustrator 27.2.0, SVG Export Plug-In . SVG Version: 6.00 Build 0)  -->
<svg version="1.1" id="Layer_1" xmlns="http://www.w3.org/2000/svg" xmlns:xlink="http://www.w3.org/1999/xlink" x="0px" y="0px"
	 viewBox="0 0 752.0966797 213.8999023" style="enable-background:new 0 0 752.0966797 213.8999023;" xml:space="preserve">
<style type="text/css">
	.st0{fill:#121212;}
	.st1{fill:#00C8C8;}
</style>
<g>
	<path class="st1" d="M78.8999023,56.1000977c17.1987305,0,31.097168,5.5029297,41.7001953,16.5
		C131.1987305,83.6015625,136.5,98.7001953,136.5,117.8999023V210h-32.3999023v-88.7998047c0-11.1987305-3-19.800293-9-25.800293
		s-14.203125-9-24.6000977-9c-11.3999023,0-20.6015625,3.5532227-27.6000977,10.6499023
		c-7.0029297,7.1015625-10.5,17.953125-10.5,32.550293V210H0V0h32.3999023v79.2001953
		C42.1967773,63.8017578,57.6987305,56.1000977,78.8999023,56.1000977z"/>
	<path class="st1" d="M242.0996094,213.8999023c-22.0029297,0-40.7021484-7.5981445-56.1005859-22.7998047
		C170.5966797,175.9033203,162.8994141,157.2001953,162.8994141,135s7.6972656-40.8984375,23.0996094-56.1000977
		c15.3984375-15.1967773,34.0976562-22.7998047,56.1005859-22.7998047c22.2001953,0,40.9501953,7.6030273,56.25,22.7998047
		C313.6494141,94.1015625,321.2998047,112.7998047,321.2998047,135s-7.6503906,40.9033203-22.9501953,56.1000977
		C283.0498047,206.3017578,264.2998047,213.8999023,242.0996094,213.8999023z M208.7998047,168.8999023
		c9,9,20.0996094,13.5,33.2998047,13.5s24.2998047-4.5,33.2998047-13.5s13.5-20.296875,13.5-33.8999023
		c0-13.5986328-4.5-24.8999023-13.5-33.8999023s-20.0996094-13.5-33.2998047-13.5s-24.2998047,4.5-33.2998047,13.5
		s-13.5,20.3012695-13.5,33.8999023C195.2998047,148.6030273,199.7998047,159.8999023,208.7998047,168.8999023z"/>
	<path class="st1" d="M514.4980469,56.1000977c16.9970703,0,30.6982422,5.5029297,41.0996094,16.5
		C565.9951172,83.6015625,571.1982422,98.3999023,571.1982422,117v93h-32.4003906v-90.8999023
		c0-10.3969727-2.6015625-18.4501953-7.7998047-24.1499023c-5.203125-5.7001953-12.2998047-8.550293-21.2998047-8.550293
		c-10.0039062,0-17.953125,3.300293-23.8505859,9.8999023c-5.9013672,6.6000977-8.8496094,16.5-8.8496094,29.7001953v84h-32.4003906
		v-90.8999023c0-10.3969727-2.4511719-18.4501953-7.3496094-24.1499023
		c-4.9033203-5.7001953-11.8505859-8.550293-20.8505859-8.550293c-9.8007812,0-17.8027344,3.3515625-24,10.050293
		c-6.2011719,6.703125-9.2998047,16.5512695-9.2998047,29.5498047v84h-32.3994141V60h32.3994141v18
		c9.6005859-14.5966797,23.8974609-21.8999023,42.9003906-21.8999023c19.2001953,0,33.3984375,7.902832,42.5996094,23.699707
		C478.5966797,64.0029297,493.8964844,56.1000977,514.4980469,56.1000977z"/>
	<path class="st1" d="M631.4970703,148.7998047c2.3994141,11.4003906,7.8984375,20.1518555,16.5,26.25
		c8.5966797,6.1035156,19.0966797,9.1503906,31.5,9.1503906c17.1982422,0,30.0976562-6.1972656,38.6992188-18.6000977
		l26.7001953,15.6000977c-14.8027344,21.8012695-36.703125,32.699707-65.7001953,32.699707
		c-24.4023438,0-44.0996094-7.4482422-59.0996094-22.3500977c-15-14.8964844-22.5-33.75-22.5-56.5498047
		c0-22.3969727,7.3964844-41.1469727,22.2001953-56.25c14.7978516-15.0986328,33.796875-22.6499023,57-22.6499023
		c21.9980469,0,40.0498047,7.7016602,54.1494141,23.1000977c14.1005859,15.402832,21.1503906,34.1015625,21.1503906,56.0996094
		c0,3.4033203-0.4033203,7.9033203-1.2001953,13.5H631.4970703z M631.1962891,122.3999023h88.2001953
		c-2.203125-12.1967773-7.2509766-21.3984375-15.1494141-27.6000977C696.34375,88.6030273,687.0947266,85.5,676.4970703,85.5
		c-12,0-22.0039062,3.2998047-30,9.8999023C638.4951172,102,633.3955078,111,631.1962891,122.3999023z"/>
</g>
</svg>
